<svg xmlns="http://www.w3.org/2000/svg" viewBox="0 0 60 60"><defs><style>.cls-1{fill:#0f61ba;}</style></defs><title>brush</title><g id="frame"><path class="cls-1" d="M0,0V60H60V0ZM57,57H3V3H57Z"/></g><g id="brush"><path class="cls-1" d="M51.5,11.37c-.85,2.9-2.69,5.23-4.5,7.54A183,183,0,0,1,32.33,35.06a2,2,0,0,1-2.1.74,2.68,2.68,0,0,1-1-.61C28.14,34.1,27,33,26,31.89a1.88,1.88,0,0,1-.09-2.81l.2-.22A190.24,190.24,0,0,1,42.13,14.24a33.43,33.43,0,0,1,5.55-3.75,10.4,10.4,0,0,1,2-.76,1.38,1.38,0,0,1,1.83.79Z"/><path class="cls-1" d="M8.5,48.82a10.17,10.17,0,0,0,4.71-6.27A6.17,6.17,0,0,1,14.31,40a4,4,0,0,1,3.63-1.62,4.62,4.62,0,0,1,3.92,4,6.12,6.12,0,0,1-1.61,4.78A8.76,8.76,0,0,1,8.62,48.93a.36.36,0,0,0-.12,0Z"/><path class="cls-1" d="M29.12,37a3.19,3.19,0,0,1-.53.79c-1.44,1.12-2.91,2.22-4.38,3.31A.87.87,0,0,1,23,41L20.1,38.17A.87.87,0,0,1,20,36.93l3.25-4.32a.92.92,0,0,1,1.56-.1q1.93,1.92,3.85,3.86A4.47,4.47,0,0,1,29.12,37Z"/></g></svg>