<svg xmlns="http://www.w3.org/2000/svg" viewBox="0 0 60 60"><defs><style>.cls-1{fill:#0f61ba;}</style></defs><title>fill</title><g id="frame"><path class="cls-1" d="M0,0V60H60V0ZM57,57H3V3H57Z"/></g><g id="fill"><path class="cls-1" d="M30.74,21.94c-.19,1-.4,2.15-.64,3.3a1.1,1.1,0,0,1-.38.6,3.19,3.19,0,0,0,1.15,5.6,3.23,3.23,0,0,0,2.93-5.55,1.18,1.18,0,0,1-.26-.76,21.15,21.15,0,0,0-3.65-12.33,6.18,6.18,0,0,0-3.57-2.71,5.58,5.58,0,0,0-2.42,0c-2.65.59-4,2.47-4.68,5-.22.84-.31,1.7-.45,2.56a1.8,1.8,0,0,1-3.56-.16,10.44,10.44,0,0,1,.65-4.12,10.53,10.53,0,0,1,2.55-4.25A9,9,0,0,1,27.53,6.6a9.91,9.91,0,0,1,5.24,3.86,19.84,19.84,0,0,1,2.87,5.42,28.13,28.13,0,0,1,1.09,4c.26,1.29.37,2.61.54,3.92a1.49,1.49,0,0,1,0,.67c-.27.73.16,1.14.62,1.59,2,2,3.92,4,5.91,5.91a3.26,3.26,0,0,1,0,4.73c-1.51,1.63-3.12,3.17-4.69,4.75q-5.82,5.82-11.65,11.63a2.35,2.35,0,0,1-2.4.56,15.07,15.07,0,0,1-5.22-2.54,41.58,41.58,0,0,1-10-9.63,40.81,40.81,0,0,1-3-4.81,9,9,0,0,1-.68-2.55,1.91,1.91,0,0,1,.68-1.74l12.7-12.72c1.07-1.07,2.15-2.13,3.23-3.19a3.59,3.59,0,0,1,5.49.07c.36.4.82.73,1.16,1.15a4.15,4.15,0,0,1,.81,1.42A27.25,27.25,0,0,1,30.74,21.94Z"/><path class="cls-1" d="M39.54,22.74c1.29.43,2.62.77,3.87,1.3a34.73,34.73,0,0,1,4.37,2.13,12.59,12.59,0,0,1,4.48,4.45,10.2,10.2,0,0,1,1.49,5.1c0,4,0,8,0,12a6.49,6.49,0,0,1-.72,3,2.49,2.49,0,0,1-3.46,1.08,8.09,8.09,0,0,1-4.48-5,7.27,7.27,0,0,1-.2-3.47,17.41,17.41,0,0,1,3.15-7.14A8.22,8.22,0,0,0,49,34.13a2.31,2.31,0,0,0-.87-2.37l-8.32-8.28a5.09,5.09,0,0,1-.39-.5Z"/></g></svg>