<svg xmlns="http://www.w3.org/2000/svg" viewBox="0 0 60 60"><defs><style>.cls-1{fill:#0f61ba;}</style></defs><title>mirrorY</title><g id="frame"><path class="cls-1" d="M0,0V60H60V0ZM57,57H3V3H57Z"/></g><g id="mirrorY"><path class="cls-1" d="M11.47,9.62H41.6L26.53,24.69Zm15.09,9.69,5.86-5.84H20.72Z"/><path class="cls-1" d="M26.63,35.33l15,15H11.58Zm8.9,12.49-8.89-8.9-8.91,8.9Z"/><path class="cls-1" d="M42.67,18.41l1.8-1.78a19,19,0,0,1,.64,26.1h3.08v2.54a3.47,3.47,0,0,1-.37,0H41c-.26,0-.48,0-.48-.37,0-2.36,0-4.71,0-7.07a1.13,1.13,0,0,1,0-.18h2.51V41A16.39,16.39,0,0,0,42.67,18.41Z"/><path class="cls-1" d="M35.5,31.24V28.77H38v2.48Z"/><path class="cls-1" d="M15.13,28.74H17.6v2.51H15.13Z"/><path class="cls-1" d="M10,28.75h2.48v2.5H10Z"/><path class="cls-1" d="M40.61,31.25v-2.5H43.1v2.5Z"/><path class="cls-1" d="M30.42,28.74H32.9v2.53H30.42Z"/><path class="cls-1" d="M27.79,31.27H25.33V28.76h2.46Z"/><path class="cls-1" d="M22.69,31.26H20.23V28.76h2.46Z"/></g></svg>