<svg xmlns="http://www.w3.org/2000/svg" viewBox="0 0 60 60"><defs><style>.cls-1{fill:#0f61ba;}</style></defs><title>mirrorX</title><g id="frame"><path class="cls-1" d="M0,0V60H60V0ZM57,57H3V3H57Z"/></g><g id="mirrorX"><path class="cls-1" d="M9.62,48.53V18.4L24.69,33.47Zm9.69-15.09-5.84-5.86v11.7Z"/><path class="cls-1" d="M35.33,33.37l15-15v30.1Zm12.49-8.9-8.9,8.89,8.9,8.91Z"/><path class="cls-1" d="M18.41,17.33l-1.78-1.8a19,19,0,0,1,26.1-.64V11.82h2.54a3.47,3.47,0,0,1,0,.37q0,3.38,0,6.77c0,.26,0,.48-.37.48-2.36,0-4.71,0-7.07,0l-.18,0V16.87H41A16.39,16.39,0,0,0,18.41,17.33Z"/><path class="cls-1" d="M31.24,24.5H28.77V22h2.48Z"/><path class="cls-1" d="M28.74,44.87V42.4h2.51v2.47Z"/><path class="cls-1" d="M28.75,50V47.49h2.5V50Z"/><path class="cls-1" d="M31.25,19.39h-2.5V16.9h2.5Z"/><path class="cls-1" d="M28.74,29.58V27.1h2.53v2.48Z"/><path class="cls-1" d="M31.27,32.21v2.46H28.76V32.21Z"/><path class="cls-1" d="M31.26,37.31v2.46H28.76V37.31Z"/></g></svg>